<?xml version="1.0" encoding="UTF-8" standalone="no"?>
<!-- Created with Inkscape (http://www.inkscape.org/) -->

<svg
   xmlns:dc="http://purl.org/dc/elements/1.1/"
   xmlns:cc="http://creativecommons.org/ns#"
   xmlns:rdf="http://www.w3.org/1999/02/22-rdf-syntax-ns#"
   xmlns:svg="http://www.w3.org/2000/svg"
   xmlns="http://www.w3.org/2000/svg"
   xmlns:sodipodi="http://sodipodi.sourceforge.net/DTD/sodipodi-0.dtd"
   xmlns:inkscape="http://www.inkscape.org/namespaces/inkscape"
   width="200px"
   height="200px"
   viewBox="0 0 210 297"
   version="1.1"
   id="svg4175"
   inkscape:version="0.92.4 (5da689c313, 2019-01-14)"
   sodipodi:docname="logo.svg">
  <metadata
     id="metadata23">
    <rdf:RDF>
      <cc:Work
         rdf:about="">
        <dc:format>image/svg+xml</dc:format>
        <dc:type
           rdf:resource="http://purl.org/dc/dcmitype/StillImage" />
      </cc:Work>
    </rdf:RDF>
  </metadata>
  <sodipodi:namedview
     pagecolor="#ffffff"
     bordercolor="#666666"
     borderopacity="1"
     objecttolerance="10"
     gridtolerance="10"
     guidetolerance="10"
     inkscape:pageopacity="0"
     inkscape:pageshadow="2"
     inkscape:window-width="2496"
     inkscape:window-height="1610"
     id="namedview21"
     showgrid="false"
     inkscape:zoom="4.72"
     inkscape:cx="30.955621"
     inkscape:cy="69.538323"
     inkscape:window-x="0"
     inkscape:window-y="28"
     inkscape:window-maximized="1"
     inkscape:current-layer="layer1" />
  <defs
     id="defs4169">
    <clipPath
       clipPathUnits="userSpaceOnUse"
       id="clipPath3783">
      <path
         d="M 0,0 H 595.276 V 841.89 H 0 Z"
         id="path3781"
         inkscape:connector-curvature="0" />
    </clipPath>
  </defs>
  <g
     inkscape:label="Layer 1"
     inkscape:groupmode="layer"
     id="layer1">
    <g
       transform="matrix(2.5399999,0,0,-2.5399999,-207.08288,1988.0644)"
       id="g3777">
      <g
         id="g3779"
         clip-path="url(#clipPath3783)">
        <g
           id="g3785"
           transform="translate(180.1725,770.6772)">
          <path
             d="m 0,0 v 3.42 h -16.738 l -6.479,-4.5 c -0.18,0.36 -0.18,0.72 -0.18,1.08 v 3.42 h -26.817 l -6.479,-4.5 c -0.18,0.36 -0.18,0.72 -0.18,1.26 v 3.24 h -16.918 l -39.595,-28.437 v -3.42 c 0,-7.558 4.32,-14.218 10.619,-17.637 l -10.619,-7.559 v -20.158 c 0,-10.978 8.999,-19.977 20.158,-19.977 h 32.936 c 4.139,0 7.919,1.26 11.158,3.419 l 40.135,28.437 C -3.6,-58.313 0,-52.193 0,-45.174 v 3.419 h -16.738 l 0.18,0.36 C -7.199,-39.775 0,-31.676 0,-21.777 v 3.419 H -12.058 C -5.039,-15.298 0,-8.099 0,0"
             style="fill:#033719;fill-opacity:1;fill-rule:nonzero;stroke:none"
             id="path3787"
             inkscape:connector-curvature="0" />
        </g>
        <g
           id="g3789"
           transform="translate(166.8541,725.5029)">
          <path
             d="m 0,0 c 0,-3.779 -3.06,-6.659 -6.659,-6.659 h -33.656 c -3.779,0 -6.659,3.059 -6.659,6.659 h -10.079 c 0,-9.179 7.559,-16.738 16.738,-16.738 H -6.839 C 2.34,-16.738 9.899,-9.179 9.899,0 Z"
             style="fill:#e2e5ec;fill-opacity:1;fill-rule:nonzero;stroke:none"
             id="path3791"
             inkscape:connector-curvature="0" />
        </g>
        <g
           id="g3793"
           transform="translate(126.5392,764.0181)">
          <path
             d="m 0,0 c -3.78,0 -6.659,3.06 -6.659,6.659 h -10.079 c 0,-9.179 7.559,-16.738 16.738,-16.738 9.179,0 16.738,7.559 16.738,16.738 H 6.659 C 6.659,3.06 3.78,0 0,0"
             style="fill:#e2e5ec;fill-opacity:1;fill-rule:nonzero;stroke:none"
             id="path3795"
             inkscape:connector-curvature="0" />
        </g>
        <g
           id="g3797"
           transform="translate(160.015,764.0181)">
          <path
             d="m 0,0 c -3.78,0 -6.659,3.06 -6.659,6.659 h -10.079 c 0,-9.179 7.559,-16.738 16.738,-16.738 9.179,0 16.738,7.559 16.738,16.738 H 6.659 C 6.839,3.06 3.78,0 0,0"
             style="fill:#e2e5ec;fill-opacity:1;fill-rule:nonzero;stroke:none"
             id="path3799"
             inkscape:connector-curvature="0" />
        </g>
        <g
           id="g3801"
           transform="translate(109.8013,732.1621)">
          <path
             d="m 0,0 v 10.079 h 16.738 c 3.779,0 6.659,3.059 6.659,6.659 H 33.476 C 33.476,7.559 25.917,0 16.738,0 Z"
             style="fill:#e2e5ec;fill-opacity:1;fill-rule:nonzero;stroke:none"
             id="path3803"
             inkscape:connector-curvature="0" />
        </g>
        <g
           id="g3805"
           transform="translate(160.015,742.2407)">
          <path
             d="m 0,0 c -3.78,0 -6.659,3.06 -6.659,6.659 h -10.079 c 0,-9.179 7.559,-16.738 16.738,-16.738 9.179,0 16.738,7.559 16.738,16.738 H 6.659 C 6.839,3.06 3.78,0 0,0"
             style="fill:#e2e5ec;fill-opacity:1;fill-rule:nonzero;stroke:none"
             id="path3807"
             inkscape:connector-curvature="0" />
        </g>
      </g>
    </g>
  </g>
</svg>
